<svg xmlns="http://www.w3.org/2000/svg" shape-rendering="geometricPrecision" text-rendering="geometricPrecision" image-rendering="optimizeQuality" fill-rule="evenodd" clip-rule="evenodd" viewBox="0 0 492 512.33"><path fill="#fff" d="m326.85 0 22.45.1c10.49.05 19.03 8.68 18.98 19.17l-.09 20.78c10.18 3.1 19.78 7.52 28.6 13.06l15.51-15.37c7.46-7.39 19.6-7.33 26.98.12l15.8 15.95c7.38 7.45 7.32 19.6-.13 26.97L438.28 97.3c4.68 8.6 8.33 17.85 10.78 27.56l23.96.11c10.49.05 19.03 8.68 18.98 19.17l-.1 22.44c-.05 10.49-8.68 19.04-19.16 18.99l-24.18-.12c-2.59 9.59-6.36 18.7-11.12 27.16l16.82 16.98c7.38 7.45 7.33 19.59-.12 26.98l-15.95 15.79c-7.45 7.38-19.59 7.33-26.97-.12l-15.89-16.04c-2.34 1.42-4.73 2.77-7.16 4.03l-42.33-44.28c30.04-4.12 53.26-29.82 53.41-61.02.15-34.18-27.43-62.02-61.6-62.18-30.44-.14-55.86 21.73-61.17 50.65l-46.55-48.7c.65-1.14 1.33-2.27 2.03-3.39l-11.5-11.61c-7.39-7.45-7.33-19.6.12-26.98l15.94-15.8c7.45-7.38 19.6-7.32 26.98.13l12.43 12.55a118.66 118.66 0 0 1 31.67-11.92l.09-18.7C307.74 8.49 316.36-.05 326.85 0zM0 251.49l249.35 260.84 138.17-128.37-14.27-20.02-101.24 93.23-1.27 1.23c-9.66 8.77-24.63 8.07-33.41-1.6l-8.11-8.94-.29.26-38.14-42.61L20.84 232.13 0 251.49zM6.77 184 256.1 444.84l138.18-128.37L144.94 55.63 6.77 184zm157.42 55.09c-8.01 22.29 3.54 46.86 25.85 54.87 22.29 8.02 46.84-3.56 54.86-25.85 8.02-22.29-3.56-46.84-25.85-54.86-22.29-8.02-46.86 3.55-54.86 25.84zm-95.12-30.17 166.61 171.72c11.22-10.43 28.92-9.8 39.37 1.49l54.68-50.73c-10.42-11.21-9.79-28.9 1.49-39.35L164.58 120.24c-11.22 10.44-28.93 9.81-39.39-1.47l-54.66 50.71c10.46 11.28 9.83 28.97-1.46 39.44z"/></svg>