<?xml version="1.0" encoding="utf-8"?>
<!-- Svg Vector Icons : http://www.onlinewebfonts.com/icon -->
<!DOCTYPE svg PUBLIC "-//W3C//DTD SVG 1.1//EN" "http://www.w3.org/Graphics/SVG/1.1/DTD/svg11.dtd">
<svg version="1.1" xmlns="http://www.w3.org/2000/svg" xmlns:xlink="http://www.w3.org/1999/xlink" x="0px" y="0px" viewBox="0 0 256 256" enable-background="new 0 0 256 256" xml:space="preserve">
<metadata> Svg Vector Icons : http://www.onlinewebfonts.com/icon </metadata>
<g><g><g><path fill="#000000" d="M198.1,12.8c-14.1,1.5-25.8,2.8-25.9,2.9c-0.6,0.6,1.5,2.5,12.2,11.1l11.9,9.6L194,39c-4.8,5.5-17.7,18.8-25.3,26.1c-44.2,42.2-88.8,69.8-134.3,82.8c-3.5,1-6.9,2.3-7.6,2.7c-4.2,3.1-4.3,8.8-0.1,11.5c2.2,1.5,4.6,1.3,11.3-0.5c26.9-7.6,54.7-20.8,81.8-38.8c29-19.3,58.1-44.8,84.4-73.9c2.3-2.5,3.2-3.3,3.7-3c0.3,0.2,5.6,4.5,11.7,9.4s11.4,9.2,11.7,9.4c0.4,0.3,0.7,0.3,1,0c0.4-0.4-4.7-52.5-5.3-54.3C226.8,9.7,227.1,9.7,198.1,12.8z"/><path fill="#000000" d="M194.4,82.4c-1.9,0.7-1.9-1.7-1.9,81.7c0,75.5,0,80,0.8,80.9c0.8,1,0.9,1,16.8,0.9l15.9-0.1l0.6-1.2c0.5-0.9,0.6-17.5,0.6-80.7V84.4l-1.2-1.1l-1.1-1.2l-15,0C201.8,82.2,194.8,82.3,194.4,82.4z"/><path fill="#000000" d="M137.3,136.2c-0.7,0.8-0.8,5.3-0.8,54.9c0,52.9,0,54,0.9,54.5c0.6,0.3,6.6,0.5,16.4,0.5c14.4,0,15.5,0,16.2-0.8c0.7-0.8,0.8-5.2,0.8-54.6v-53.8l-1-0.7c-0.9-0.6-3.2-0.7-16.4-0.7C139.1,135.3,138,135.4,137.3,136.2z"/><path fill="#000000" d="M80.8,171.3c-0.6,0.6-0.7,4.6-0.7,36.9c0,34.5,0,36.3,0.8,37c0.8,0.7,2.6,0.8,16.3,0.8c9.7,0,15.7-0.2,16.3-0.5c0.9-0.5,0.9-1.4,0.9-37.2c0-28-0.1-36.9-0.6-37.3c-0.4-0.4-4.7-0.6-16.4-0.6C83.6,170.5,81.4,170.6,80.8,171.3z"/><path fill="#000000" d="M24.3,197c-0.6,0.9-0.7,3.9-0.7,23.7c0,17.4,0.1,23,0.6,23.8l0.6,1.2l15.9,0.1c15.8,0.1,16,0.1,16.8-0.9c0.7-0.9,0.8-2.8,0.8-24c0-20-0.1-23.1-0.7-24l-0.7-1H41H25L24.3,197z"/></g></g></g>
</svg>