<svg id="Layer_1" enable-background="new 0 0 512 512" height="24" viewBox="0 0 512 512" width="24" xmlns="http://www.w3.org/2000/svg" fill="#a9d621"><g id="increase"><path d="m451 257v215c0 22.5-14.1 40-32.1 40h-43.9c-18 0-32.1-17.6-32.1-40v-215c0-22.5 14.1-40 32.1-40h43.9c17.9 0 32.1 17.6 32.1 40z"/><path d="m451.7 130.9c-3 2.1-6.9 2.2-10.1.3l-30-18c-49.4 81.8-119.1 158.8-253.7 158.8-28.4 0-59.7-3.4-94.3-11-5-1.1-8.2-6-7.2-11.1 1-4.6 5.2-7.7 9.9-7.3 8.4.7 203.6 13.8 285.6-166.7l-30.7-14.9c-4.6-2.2-6.6-7.8-4.4-12.4 1-2.1 2.7-3.7 4.8-4.6l101.9-43.3c4.7-2 10.2.2 12.2 4.9.3.7.5 1.4.6 2.1l19.3 113.9c.7 3.6-.9 7.3-3.9 9.3z"/><path d="m310.1 336v136c0 22.5-14.1 40-32.1 40h-44c-18 0-32.1-17.6-32.1-40v-136c0-22.5 14.1-40 32.1-40h43.9c18.1-.1 32.2 17.5 32.2 40z"/><path d="m172.3 401.8v70.2c0 22.4-14.1 40-32.1 40h-44c-18 0-32.1-17.6-32.1-40v-70.2c0-22.5 14.1-40 32.1-40h43.9c18.1-.1 32.2 17.5 32.2 40z"/></g></svg>