<?xml version="1.0" encoding="utf-8"?>
<!-- Svg Vector Icons : http://www.onlinewebfonts.com/icon -->
<!DOCTYPE svg PUBLIC "-//W3C//DTD SVG 1.1//EN" "http://www.w3.org/Graphics/SVG/1.1/DTD/svg11.dtd">
<svg version="1.1" xmlns="http://www.w3.org/2000/svg" xmlns:xlink="http://www.w3.org/1999/xlink" x="0px" y="0px" viewBox="0 0 256 256" enable-background="new 0 0 256 256" xml:space="preserve">
<metadata> Svg Vector Icons : http://www.onlinewebfonts.com/icon </metadata>
<g><g><path fill="#000000" d="M212.3,45.6L212.3,45.6c-37.4,0-72.6-30.9-73-31.2C136.1,11.4,132,10,128,10c-4,0-8.1,1.4-11.3,4.3c-0.5,0.5-35.4,31.3-73,31.3c-9.3,0-16.9,7.5-16.9,16.9v51c0,46.2,27.4,84.9,91.5,129.5c2.9,2,6.3,3,9.6,3s6.7-1,9.6-3c64.2-44.7,91.5-83.4,91.5-129.5v-51C229.2,53.2,221.6,45.6,212.3,45.6z M168.8,140.7h-28.2v31h-25.3v-31H87.2v-25.3h28.2V87.2h25.3v28.2h28.2V140.7z"/></g></g>
</svg>