<?xml version="1.0" encoding="utf-8"?>
<!DOCTYPE svg PUBLIC "-//W3C//DTD SVG 1.1//EN" "http://www.w3.org/Graphics/SVG/1.1/DTD/svg11.dtd">
<svg version="1.1" xmlns="http://www.w3.org/2000/svg" xmlns:xlink="http://www.w3.org/1999/xlink" x="0px" y="0px" viewBox="0 0 256 256" enable-background="new 0 0 256 256" xml:space="preserve">
<metadata> Svg Vector Icons : http://www.onlinewebfonts.com/icon </metadata>
<g><g><g><path fill="#fff" d="M63.2,10.7C54.9,13,49,19.5,47.8,27.8c-0.6,4.4-0.6,196.6,0,200.6c1.3,8.3,7.9,15.3,16,17c3.5,0.7,124.8,0.7,128.3,0c8.1-1.8,14.7-8.7,16-17c0.6-4,0.7-196.1,0-200.7c-1.2-8.2-7.2-14.9-15.4-17.1C189.2,9.7,66.7,9.8,63.2,10.7z M186.4,26.9c0.9,0.4,2.4,1.3,3.2,2.2c3,2.9,2.9-2.2,2.9,85.4c0,58.6-0.1,80-0.6,81.6c-0.6,2.7-3.6,5.9-6.1,6.5c-2.5,0.7-113.1,0.7-115.6,0c-1-0.3-2.6-1.2-3.6-2.1c-3.4-3.1-3.2,3.1-3.1-87c0.1-89-0.1-81.6,3-84.6c3-2.8-0.8-2.6,61.3-2.7C178.2,26.2,184.9,26.3,186.4,26.9z M133,215c5,2.6,7,8.8,4.5,14.2c-3.7,8-15.3,7.9-19-0.2c-2.2-4.7-0.9-10.2,3.1-13.1C124.7,213.6,129.4,213.2,133,215z"/><path fill="#fff" d="M125.4,46.9c-2.4,1.6-3.1,3-3.4,7.6l-0.2,4.1l-4.7,0.8c-2.5,0.5-6,1.2-7.8,1.8c-16.4,5.3-26,18.8-23.5,33.1c1,5.6,2.9,9.2,7.1,13.1c5.8,5.3,13.9,8.8,25.4,10.6l3.4,0.5l-0.3,4.2c-0.1,2.3-0.3,10.9-0.3,19.3v15.1l-3.8-0.8c-11.7-2.6-17-6.7-18.8-14.7c-0.8-3.8-1.4-5-2.9-6.2c-1.5-1.3-3.8-1.8-5.9-1.4c-2.1,0.5-4.5,2.8-5.1,4.8c-0.7,2.5,0.5,7.5,3.1,12.9c4.3,8.9,12.2,14.6,24.3,17.5c3,0.7,6.3,1.4,7.3,1.6l1.7,0.3v4.2c0,5.1,0.8,6.8,3.8,8.2c2.4,1.1,3.3,1.1,5.7,0c3-1.3,3.8-3.1,3.8-7.9c0-4.6-0.3-4.2,4.4-4.7c4.1-0.5,9.5-2.1,13.8-4.1c11.6-5.6,18.2-16.2,18.2-29.3c0-16.2-10.4-26.2-31.4-30.3l-4.1-0.8V89.6V73.2h1.1c1.8,0,8.4,2.6,11.1,4.3c5.2,3.5,9,9,10.2,14.9c0.7,3.5,1.8,5.1,4,6.2c3.1,1.6,6.5,0.6,8.9-2.5c1.9-2.6,0.8-9.7-2.4-15.5C161.9,69,152,62.2,136.7,59.1l-1.2-0.2l0.1-4.1c0.1-4.4-0.5-5.9-2.8-7.6C130.9,45.8,127.2,45.7,125.4,46.9z M121.5,88.4V104h-1.3c-2.1,0-9.7-2.1-13-3.6c-4.4-1.9-6.7-4.2-7.6-7.4c-1.9-6.7,1.8-13.7,9.3-17.2c3.1-1.5,8.9-3.1,11.2-3.1l1.5,0L121.5,88.4L121.5,88.4z M140.8,121.3c7.8,2.1,12.6,5.1,15.1,9.3c1.2,1.9,1.2,2.3,1,7.2c-0.1,4.3-0.4,5.6-1.3,7.7c-2.7,5.9-9.4,10-18.3,11.5l-2.3,0.4v-18.6c0-17.4,0-18.6,0.8-18.6C136.1,120.2,138.5,120.7,140.8,121.3z"/></g></g></g>
</svg>