<svg xmlns="http://www.w3.org/2000/svg" xmlns:xlink="http://www.w3.org/1999/xlink" version="1.1" width="256" height="256" viewBox="0 0 256 256" xml:space="preserve">

<defs>
</defs>
<g style="stroke: none; stroke-width: 0; stroke-dasharray: none; stroke-linecap: butt; stroke-linejoin: miter; stroke-miterlimit: 10; fill: none; fill-rule: nonzero; opacity: 1;" transform="translate(1.4065934065934016 1.4065934065934016) scale(2.81 2.81)" >
	<path d="M 89 29.481 H 64.857 c -0.553 0 -1 -0.448 -1 -1 s 0.447 -1 1 -1 H 88 V 8.452 H 2 v 19.03 h 23.731 c 0.552 0 1 0.448 1 1 s -0.448 1 -1 1 H 1 c -0.552 0 -1 -0.448 -1 -1 V 7.452 c 0 -0.552 0.448 -1 1 -1 h 88 c 0.553 0 1 0.448 1 1 v 21.03 C 90 29.034 89.553 29.481 89 29.481 z" style="stroke: none; stroke-width: 1; stroke-dasharray: none; stroke-linecap: butt; stroke-linejoin: miter; stroke-miterlimit: 10; fill: rgb(0,0,0); fill-rule: nonzero; opacity: 1;" transform=" matrix(1 0 0 1 0 0) " stroke-linecap="round" />
	<path d="M 64.857 83.549 H 25.731 c -0.552 0 -1 -0.447 -1 -1 V 17.966 c 0 -0.552 0.448 -1 1 -1 s 1 0.448 1 1 v 63.583 h 37.126 V 17.966 c 0 -0.552 0.447 -1 1 -1 s 1 0.448 1 1 v 64.583 C 65.857 83.102 65.41 83.549 64.857 83.549 z" style="stroke: none; stroke-width: 1; stroke-dasharray: none; stroke-linecap: butt; stroke-linejoin: miter; stroke-miterlimit: 10; fill: rgb(0,0,0); fill-rule: nonzero; opacity: 1;" transform=" matrix(1 0 0 1 0 0) " stroke-linecap="round" />
	<path d="M 45.294 54.149 c -6.132 0 -11.121 -4.989 -11.121 -11.121 c 0 -6.132 4.989 -11.121 11.121 -11.121 c 6.132 0 11.121 4.989 11.121 11.121 C 56.415 49.16 51.426 54.149 45.294 54.149 z M 45.294 33.907 c -5.029 0 -9.121 4.092 -9.121 9.121 s 4.092 9.121 9.121 9.121 s 9.121 -4.092 9.121 -9.121 S 50.323 33.907 45.294 33.907 z" style="stroke: none; stroke-width: 1; stroke-dasharray: none; stroke-linecap: butt; stroke-linejoin: miter; stroke-miterlimit: 10; fill: rgb(0,0,0); fill-rule: nonzero; opacity: 1;" transform=" matrix(1 0 0 1 0 0) " stroke-linecap="round" />
	<path d="M 49.546 74.16 h -8.504 c -0.552 0 -1 -0.447 -1 -1 c 0 -2.654 -2.16 -4.825 -4.815 -4.838 c -0.55 -0.003 -0.995 -0.449 -0.995 -1 V 55.955 c 0 -0.553 0.448 -1 1 -1 s 1 0.447 1 1 v 10.444 c 2.956 0.449 5.3 2.804 5.737 5.761 h 6.65 c 0.438 -2.982 2.81 -5.345 5.796 -5.771 V 55.955 c 0 -0.553 0.447 -1 1 -1 s 1 0.447 1 1 v 11.367 c 0 0.586 -0.529 1.049 -1.114 0.994 c -2.584 0.004 -4.755 2.175 -4.755 4.844 C 50.546 73.713 50.099 74.16 49.546 74.16 z" style="stroke: none; stroke-width: 1; stroke-dasharray: none; stroke-linecap: butt; stroke-linejoin: miter; stroke-miterlimit: 10; fill: rgb(0,0,0); fill-rule: nonzero; opacity: 1;" transform=" matrix(1 0 0 1 0 0) " stroke-linecap="round" />
	<path d="M 35.231 31.101 c -0.552 0 -1 -0.448 -1 -1 v -6.546 c 0 -0.552 0.448 -1 1 -1 s 1 0.448 1 1 v 6.546 C 36.231 30.653 35.784 31.101 35.231 31.101 z" style="stroke: none; stroke-width: 1; stroke-dasharray: none; stroke-linecap: butt; stroke-linejoin: miter; stroke-miterlimit: 10; fill: rgb(0,0,0); fill-rule: nonzero; opacity: 1;" transform=" matrix(1 0 0 1 0 0) " stroke-linecap="round" />
	<path d="M 55.415 31.101 c -0.553 0 -1 -0.448 -1 -1 v -6.546 c 0 -0.552 0.447 -1 1 -1 s 1 0.448 1 1 v 6.546 C 56.415 30.653 55.968 31.101 55.415 31.101 z" style="stroke: none; stroke-width: 1; stroke-dasharray: none; stroke-linecap: butt; stroke-linejoin: miter; stroke-miterlimit: 10; fill: rgb(0,0,0); fill-rule: nonzero; opacity: 1;" transform=" matrix(1 0 0 1 0 0) " stroke-linecap="round" />
	<path d="M 78.403 18.966 H 12.185 c -0.552 0 -1 -0.448 -1 -1 s 0.448 -1 1 -1 h 66.219 c 0.553 0 1 0.448 1 1 S 78.956 18.966 78.403 18.966 z" style="stroke: none; stroke-width: 1; stroke-dasharray: none; stroke-linecap: butt; stroke-linejoin: miter; stroke-miterlimit: 10; fill: rgb(0,0,0); fill-rule: nonzero; opacity: 1;" transform=" matrix(1 0 0 1 0 0) " stroke-linecap="round" />
</g>
</svg>