<svg fill="none" height="512" viewBox="0 0 120 120" width="512" xmlns="http://www.w3.org/2000/svg"><g fill="#a9d621"><path d="m58 57c1.1046 0 2-.8954 2-2v-3c0-1.1046-.8954-2-2-2h-2.5-4.5v7z"/><path d="m33 10h32v4c0 2.7614-2.2386 5-5 5h-22c-2.7614 0-5-2.2386-5-5z"/><path clip-rule="evenodd" d="m21 20c0-4.8379 3.4355-8.8734 8-9.8v3.8c0 4.9706 4.0294 9 9 9h22c4.9706 0 9-4.0294 9-9v-3.8c4.5645.9266 8 4.9621 8 9.8v15h-26v-1c0-1.1046-.8954-2-2-2s-2 .8954-2 2v50c0 1.1046.8954 2 2 2s2-.8954 2-2v-1h26v17c0 5.523-4.4772 10-10 10h-36c-5.5228 0-10-4.477-10-10zm14 80c-1.1046 0-2 .895-2 2s.8954 2 2 2h28c1.1046 0 2-.895 2-2s-.8954-2-2-2z" fill-rule="evenodd"/><path d="m51 39v7h7c3.3137 0 6 2.6863 6 6v3c0 3.3137-2.6863 6-6 6h-7v18h46c3.314 0 6-2.6863 6-6v-28c0-3.3137-2.686-6-6-6z"/><path d="m51 57v-7h7c1.1046 0 2 .8954 2 2v3c0 1.1046-.8954 2-2 2z"/></g></svg>