<svg id="Team" enable-background="new 0 0 32 32" height="512" viewBox="0 0 32 32" width="512" xmlns="http://www.w3.org/2000/svg" fill="#a9d621"><g><path d="m6.8 24.1c0-2.2.8-4.2 2-5.7-.5-.2-1.1-.3-1.6-.3-2.9 0-5.3 2.4-5.3 5.3-.1.6.4 1.1 1 1.1h3.8c.1-.1.1-.3.1-.4z"/><path d="m7.3 17.5c1.5 0 2.8-.9 3.3-2.2-.8-1.1-1.2-2.4-1.2-3.9 0-.1 0-.2 0-.4-.6-.4-1.3-.7-2.1-.7-2 0-3.5 1.6-3.5 3.6-.1 2 1.5 3.6 3.5 3.6z"/><path d="m24.7 18.1c-.6 0-1.1.1-1.6.3 1.3 1.6 2 3.5 2 5.7v.4h3.9c.6 0 1.1-.5 1-1.1 0-2.9-2.4-5.3-5.3-5.3z"/><path d="m24.7 17.5c2 0 3.5-1.6 3.5-3.6s-1.6-3.6-3.5-3.6c-.8 0-1.5.2-2.1.7v.4c0 1.4-.5 2.8-1.2 3.9.6 1.3 1.8 2.2 3.3 2.2z"/><path d="m16 17c-3.9 0-7.2 3.2-7.2 7.2-.1.6.4 1.2 1 1.2h12.3c.6 0 1.1-.6 1-1.2.1-4-3.2-7.2-7.1-7.2z"/><path d="m16 16.1c2.6 0 4.7-2.1 4.7-4.7s-2.1-4.7-4.7-4.7-4.7 2.1-4.7 4.7 2.1 4.7 4.7 4.7z"/></g></svg>