<?xml version="1.0" encoding="utf-8"?>
<!-- Svg Vector Icons : http://www.onlinewebfonts.com/icon -->
<!DOCTYPE svg PUBLIC "-//W3C//DTD SVG 1.1//EN" "http://www.w3.org/Graphics/SVG/1.1/DTD/svg11.dtd">
<svg version="1.1" xmlns="http://www.w3.org/2000/svg" xmlns:xlink="http://www.w3.org/1999/xlink" x="0px" y="0px" viewBox="0 0 256 256" enable-background="new 0 0 256 256" xml:space="preserve">
<metadata> Svg Vector Icons : http://www.onlinewebfonts.com/icon </metadata>
<g><g><g><path fill="#fff" d="M178.4,50.8V72h-39.3H99.7v22.5v22.5h39.3h39.3l0.1,20.9l0.2,20.8l31.6-30.2c17.4-16.7,32.6-31.2,33.7-32.3l2-2l-28.7-27.5c-15.8-15.1-31-29.7-33.8-32.3l-5.1-4.9L178.4,50.8L178.4,50.8z"/><path fill="#fff" d="M43.4,129.3C25,147,10,161.7,10,162c0.1,0.3,15.1,14.9,33.5,32.5l33.4,32l0.2-21.2l0.1-21.1h39.3h39.3v-22.5v-22.5h-39.3H77.2l-0.1-20.9l-0.2-20.9L43.4,129.3z"/></g></g></g>
</svg>